<svg xmlns:xlink="http://www.w3.org/1999/xlink" xmlns="http://www.w3.org/2000/svg" id="screenshot" version="1.1" style="-webkit-print-color-adjust: exact;" viewBox="-0.11 144.56 376.61 72.36"><g id="shape-39e3fa00-250c-11ec-b6cb-2999e39f37ec" class="svg-inline--fa fa-plane fa-w-18"><g id="shape-172b1060-2512-11ec-b6cb-2999e39f37ec"><g id="shape-39e4bd50-250c-11ec-b6cb-2999e39f37ec"><path fill="currentColor" d="M55.00119867664921,149.5408225010814L43.191437171332836,161.09026410789605L13.743452016321726,152.7042179235256C12.944932393663407,152.47739821749852,12.08609356018735,152.6955784628265,11.492649808999886,153.27601388644322L4.724434054356152,159.89503939389257C3.626019802877181,160.96924154876564,3.861184300169498,162.79520612688552,5.195682478637991,163.55617728002616L27.603874628004746,176.33423353993703L16.975192604758263,186.72862993224575L6.690569859267043,185.1422585498691C5.971261700884725,185.03101500088076,5.240939330087485,185.2661249218256,4.721181692746313,185.7744256592678L0.5889534785751493,189.81556810267074C-0.48672783449092094,190.86753841614473,-0.2878743826228174,192.65017207961537,0.9941980369876546,193.4381544397383L15.176114316288817,201.42615434282774L22.846077055778437,215.78256626850384C23.60529189190038,217.08188098080535,25.383051248058223,217.32041220528626,26.458732561124293,216.26844189181233L30.590960775295343,212.22729944840938C31.111751728019044,211.71798817272168,31.362045655108545,210.99409729877036,31.266859987688576,210.27248864955362L29.910082146032778,199.95506682681653L40.53876416927926,189.56067043450784L52.81325514070045,212.2470314135473C53.54429713585421,213.59815690200836,55.36557796797547,213.87498912704874,56.46399221945444,212.80078697217567L63.23220797409806,206.18176146472652C63.82533100358887,205.60171251186006,64.0617423766679,204.7478661040159,63.852989214433364,203.94527164364413L56.12632671260735,174.31670100246683L67.93608821792373,162.7672593956522C71.58885809466642,159.19500669812055,74.96072381574629,150.10564366915358,71.38847111821451,146.45287379241088C67.81621842068284,142.80010391566805,58.653968553391906,145.96856980354977,55.00119867664921,149.5408225010814ZZ" style="fill: rgb(246, 157, 114); fill-opacity: 1;"/></g><g id="shape-52267c30-2509-11ec-b6cb-2999e39f37ec"><g><path d="M2500 3805 c-112 -25 -222 -76 -297 -137 -29 -24 -158 -145 -287 -271 l-233 -227 -544 155 c-299 85 -570 162 -601 171 -31 9 -67 14 -80 11 -13 -4 -94 -78 -182 -166 -152 -153 -158 -161 -152 -192 3 -18 11 -38 17 -45 5 -7 215 -129 465 -271 250 -142 453 -262 452 -268 -2 -5 -96 -101 -209 -212 -145 -143 -212 -203 -228 -203 -13 0 -106 13 -208 30 -101 17 -196 30 -210 30 -19 0 -50 -23 -114 -87 l-89 -87 0 -75 1 -76 283 -159 283 -159 153 -286 c83 -157 163 -296 176 -309 50 -44 76 -33 195 85 82 80 109 113 109 132 0 14 -12 118 -27 230 l-26 204 213 211 213 210 16 -23 c18 -28 28 -46 290 -530 105 -195 201 -365 213 -378 14 -15 33 -23 55 -23 29 0 52 18 187 146 85 81 159 158 165 171 10 22 -11 112 -144 622 -85 329 -155 604 -155 613 0 8 118 131 263 274 254 250 265 262 309 349 63 124 89 213 90 308 0 66 -4 86 -28 135 -24 47 -38 61 -79 82 -60 30 -159 36 -255 15z M3682 3269 c-38 -19 -112 -91 -112 -110 0 -4 -28 -17 -63 -28 -100 -34 -308 -143 -331 -174 -26 -35 -24 -104 4 -184 31 -89 37 -91 109 -45 57 38 179 87 189 78 2 -3 -83 -339 -189 -748 -106 -409 -194 -768 -197 -799 -8 -104 43 -152 163 -152 92 -1 132 11 175 49 48 43 69 96 119 299 52 207 129 496 133 499 2 1 38 0 80 -2 l78 -4 20 -44 c80 -182 327 -501 515 -666 166 -145 244 -165 419 -108 135 45 148 73 84 171 -34 50 -83 89 -114 89 -54 0 -179 118 -345 325 -76 94 -205 283 -198 289 2 2 42 16 89 31 220 70 410 203 493 346 64 109 96 272 77 392 -33 213 -208 393 -450 463 -89 26 -335 26 -429 1 -63 -17 -64 -17 -78 3 -38 53 -161 68 -241 29z m606 -344 c84 -20 131 -45 175 -94 67 -74 84 -161 52 -268 -39 -130 -220 -252 -441 -298 -106 -22 -308 -32 -318 -16 -9 14 -7 20 81 383 l64 267 82 20 c99 24 219 26 305 6z M14662 3269 c-23 -7 -37 -20 -47 -42 -7 -18 -77 -338 -155 -712 -77 -374 -144 -689 -149 -700 -6 -15 -42 84 -144 395 -74 228 -180 550 -234 715 l-98 300 -38 19 c-58 28 -194 34 -254 11 -162 -62 -307 -385 -418 -930 -62 -304 -125 -824 -125 -1025 0 -117 14 -154 65 -176 82 -34 257 -24 310 17 35 29 43 70 55 293 23 448 77 815 167 1139 15 53 30 97 33 97 4 0 129 -336 279 -747 224 -615 278 -753 302 -775 46 -44 171 -74 281 -69 31 2 77 51 97 106 21 56 56 217 235 1071 58 275 121 570 141 654 l35 153 -26 38 c-36 52 -147 157 -179 169 -32 12 -88 12 -133 -1z M7917 3224 c-30 -9 -51 -23 -58 -37 -5 -12 -95 -350 -199 -752 -116 -443 -202 -754 -219 -791 -76 -162 -225 -236 -376 -188 -134 42 -179 156 -140 357 33 173 12 207 -125 207 -120 0 -175 -42 -205 -155 -19 -76 -20 -261 0 -334 53 -199 206 -335 425 -377 102 -19 283 -14 375 10 222 60 390 232 468 481 32 104 289 1153 322 1316 33 168 33 182 -7 212 -82 61 -174 79 -261 51z M9010 2685 c-8 -2 -49 -9 -90 -15 -87 -14 -230 -77 -311 -137 -226 -168 -349 -432 -349 -748 1 -326 144 -557 400 -646 88 -30 266 -30 384 1 319 82 579 378 651 740 25 121 17 273 -17 357 -40 96 -81 149 -137 174 l-48 23 23 34 c34 50 33 110 -4 145 -36 35 -90 53 -198 66 -80 10 -265 13 -304 6z m180 -296 l32 -12 -6 -55 -6 -54 42 -37 c108 -92 112 -104 97 -238 -21 -190 -107 -381 -224 -499 -117 -118 -218 -150 -319 -100 -139 68 -205 224 -177 417 26 174 98 340 193 444 63 69 103 97 176 126 54 21 144 24 192 8z M11970 2669 c-88 -7 -165 -30 -174 -54 -3 -8 15 -39 40 -69 l45 -56 -161 -639 c-88 -352 -160 -651 -160 -665 0 -45 38 -75 110 -87 73 -12 182 -4 221 17 14 7 31 26 37 41 6 15 56 213 112 440 l102 412 82 87 c102 110 262 217 359 240 l28 6 -7 -64 c-9 -89 12 -107 116 -98 74 6 200 112 246 206 22 45 26 64 22 111 -4 50 -9 61 -42 89 -20 17 -60 39 -90 48 -66 21 -197 22 -252 3 -106 -38 -220 -113 -311 -203 -64 -64 -71 -65 -54 -7 11 37 -5 118 -32 170 -34 65 -92 82 -237 72z M10205 2646 c-33 -14 -80 -64 -89 -93 -3 -10 -53 -220 -112 -468 -102 -427 -108 -455 -107 -556 0 -256 85 -405 248 -437 116 -24 209 -11 315 43 165 84 277 198 390 398 18 32 34 56 36 55 1 -2 -26 -83 -62 -181 -35 -98 -64 -188 -64 -202 0 -35 46 -62 126 -75 103 -17 179 -5 219 34 30 28 36 45 65 176 17 80 68 287 112 460 44 173 105 418 135 544 61 252 61 261 1 292 -47 25 -201 25 -257 -1 -47 -21 -59 -43 -95 -176 -110 -407 -520 -1059 -687 -1093 -70 -14 -119 35 -119 118 0 25 50 260 111 523 75 319 112 499 113 542 1 59 -1 65 -27 85 -24 17 -44 21 -125 24 -66 1 -107 -2 -127 -12z M5969 2635 c-383 -72 -730 -382 -852 -760 -41 -126 -51 -191 -51 -325 0 -107 3 -133 23 -183 50 -126 155 -216 303 -258 75 -22 102 -24 268 -23 171 1 192 3 275 28 223 67 414 197 495 339 33 58 37 85 16 125 -32 61 -92 92 -180 92 -71 0 -112 -30 -180 -134 -31 -46 -67 -94 -82 -105 -15 -12 -63 -33 -108 -48 -68 -22 -99 -27 -196 -27 -99 0 -122 3 -166 23 -65 28 -99 64 -113 117 -10 39 -6 120 8 142 3 6 146 57 316 115 512 173 631 221 721 290 103 78 136 190 99 332 -31 117 -111 203 -232 247 -74 28 -253 34 -364 13z m208 -257 c103 -44 96 -124 -18 -198 -94 -61 -629 -261 -637 -239 -7 17 74 125 148 198 188 186 398 285 507 239z" transform="translate(1.5039334868092737, 137.0000004768306) scale(0.25, 0.25) translate(0.000000,412.000000) scale(0.100000,-0.100000)" fill="current" stroke="none"/></g></g></g></g></svg>